<svg xmlns="http://www.w3.org/2000/svg">
  <!-- 首页图标 -->
  <symbol id="zhuzhan-icon" viewBox="0 0 18 18">
    <path
      fill-rule="evenodd"
      clip-rule="evenodd"
      d="M3.73252 2.67094C3.33229 2.28484 3.33229 1.64373 3.73252 1.25764C4.11291 0.890684 4.71552 0.890684 5.09591 1.25764L7.21723 3.30403C7.27749 3.36218 7.32869 3.4261 7.37081 3.49407H10.5789C10.6211 3.4261 10.6723 3.36218 10.7325 3.30403L12.8538 1.25764C13.2342 0.890684 13.8368 0.890684 14.2172 1.25764C14.6175 1.64373 14.6175 2.28484 14.2172 2.67094L13.364 3.49407H14C16.2091 3.49407 18 5.28493 18 7.49407V12.9996C18 15.2087 16.2091 16.9996 14 16.9996H4C1.79086 16.9996 0 15.2087 0 12.9996V7.49406C0 5.28492 1.79086 3.49407 4 3.49407H4.58579L3.73252 2.67094ZM4 5.42343C2.89543 5.42343 2 6.31886 2 7.42343V13.0702C2 14.1748 2.89543 15.0702 4 15.0702H14C15.1046 15.0702 16 14.1748 16 13.0702V7.42343C16 6.31886 15.1046 5.42343 14 5.42343H4ZM5 9.31747C5 8.76519 5.44772 8.31747 6 8.31747C6.55228 8.31747 7 8.76519 7 9.31747V10.2115C7 10.7638 6.55228 11.2115 6 11.2115C5.44772 11.2115 5 10.7638 5 10.2115V9.31747ZM12 8.31747C11.4477 8.31747 11 8.76519 11 9.31747V10.2115C11 10.7638 11.4477 11.2115 12 11.2115C12.5523 11.2115 13 10.7638 13 10.2115V9.31747C13 8.76519 12.5523 8.31747 12 8.31747Z"
      fill="currentColor"
    ></path>
  </symbol>
  <!-- 下载客户端图标 -->
  <symbol id="download-icon" viewBox="0 0 16 16">
    <path
      d="M7.23181 8.65895V1.75796C7.23181 1.33935 7.57582 1 8.00018 1C8.42453 1 8.76854 1.33935 8.76854 1.75796V8.67097L9.98589 7.47009C10.286 7.17409 10.7725 7.17409 11.0725 7.47009C11.3726 7.7661 11.3726 8.24601 11.0725 8.54201L8.54958 11.0308C8.24952 11.3268 7.76302 11.3268 7.46295 11.0308L4.94002 8.54201C4.63995 8.24601 4.63995 7.7661 4.94002 7.47009C5.24008 7.17409 5.72658 7.17409 6.02665 7.47009L7.23181 8.65895Z"
      fill="currentColor"
    ></path>
    <path
      d="M3.48023 4.29936C2.40686 4.29936 1.53672 5.15772 1.53672 6.21656V11.5669C1.53672 12.6257 2.40686 13.4841 3.48023 13.4841H12.5198C13.5931 13.4841 14.4633 12.6257 14.4633 11.5669V6.21656C14.4633 5.15772 13.5931 4.29936 12.5198 4.29936H11.6158C11.1915 4.29936 10.8475 3.96001 10.8475 3.5414C10.8475 3.12279 11.1915 2.78344 11.6158 2.78344H12.5198C14.4418 2.78344 16 4.3205 16 6.21656V11.5669C16 13.4629 14.4418 15 12.5198 15H3.48023C1.55815 15 0 13.4629 0 11.5669V6.21656C0 4.3205 1.55815 2.78344 3.48023 2.78344H4.38418C4.80853 2.78344 5.15254 3.12279 5.15254 3.5414C5.15254 3.96001 4.80853 4.29936 4.38418 4.29936H3.48023Z"
      fill="currentColor"
    ></path>
  </symbol>
  <!-- 大会员图标 -->
  <symbol id="vip-icon" viewBox="0 0 20 20">
    <path
      fill-rule="evenodd"
      clip-rule="evenodd"
      d="M10 1C5.02955 1 1 5.02955 1 10C1 14.9705 5.02955 19 10 19C14.9705 19 19 14.9705 19 10C19 5.02955 14.9705 1 10 1ZM10.0006 2.63614C14.0612 2.63614 17.3642 5.93996 17.3642 9.99977C17.3642 14.0604 14.0612 17.3634 10.0006 17.3634C5.93996 17.3634 2.63696 14.0604 2.63696 9.99977C2.63696 5.93996 5.93996 2.63614 10.0006 2.63614Z"
      fill="currentColor"
    ></path>
    <path
      d="M13.1381 8.05573V8.05331H10.7706C10.7859 7.8643 10.7948 7.67286 10.7948 7.47981C10.7948 7.26414 10.7843 7.05008 10.7649 6.83926C10.7658 6.82552 10.7674 6.81179 10.7674 6.79725V6.79483C10.7674 6.35541 10.4111 6 9.97254 6C9.53312 6 9.17771 6.35622 9.17771 6.79483V6.79725C9.17771 6.85137 9.18336 6.90468 9.19386 6.95557L9.18255 6.95719C9.19871 7.12924 9.20759 7.30291 9.20759 7.479C9.20759 7.67286 9.19709 7.8643 9.17771 8.0525H6.74313V8.05573C6.32876 8.08239 6 8.42649 6 8.84814V8.85057C6 9.28998 6.33683 9.64216 6.77544 9.64216C6.80937 9.64216 6.8441 9.64378 6.89903 9.64297L8.7601 9.63893C8.28837 10.7294 7.47011 11.6341 6.44507 12.2149C6.44023 12.2173 6.43619 12.2197 6.43134 12.2229C6.42003 12.2294 6.40953 12.2359 6.39822 12.2423L6.39903 12.2431C6.17528 12.3837 6.02585 12.6325 6.02585 12.916V12.9184C6.02585 13.3578 6.38207 13.7132 6.82068 13.7132C6.99111 13.7132 7.14782 13.6591 7.27706 13.5687C8.7706 12.706 9.9168 11.3094 10.4556 9.64055H13.0105C13.0517 9.64136 13.1131 9.63893 13.1131 9.63893C13.5905 9.62924 13.9039 9.2916 13.9039 8.85299V8.85057C13.9047 8.42003 13.5638 8.07108 13.1381 8.05573Z"
      fill="currentColor"
    ></path>
    <path
      d="M13.7731 12.5388C13.7715 12.5356 13.7691 12.5331 13.7674 12.5307C13.74 12.4814 13.7077 12.4362 13.6713 12.3942C13.1584 11.6672 12.513 11.0412 11.7674 10.5541L11.7666 10.555C11.6366 10.4613 11.4766 10.4055 11.3046 10.4055C10.8652 10.4055 10.5098 10.7617 10.5098 11.2003V11.2028C10.5098 11.5033 10.677 11.765 10.9233 11.8999C11.5615 12.3215 12.0825 12.8045 12.4944 13.4499L12.5372 13.5041C12.6786 13.6333 12.866 13.7133 13.0728 13.7133C13.5122 13.7133 13.8676 13.3571 13.8676 12.9184V12.916C13.8668 12.7795 13.8329 12.6511 13.7731 12.5388Z"
      fill="currentColor"
    ></path>
  </symbol>
  <!-- 消息图标 -->
  <symbol id="message-icon" viewBox="0 0 20 20">
    <path
      d="M15.435 17.7717H4.567C2.60143 17.7717 1 16.1723 1 14.2047V5.76702C1 3.80144 2.59942 2.20001 4.567 2.20001H15.433C17.3986 2.20001 19 3.79943 19 5.76702V14.2047C19.002 16.1703 17.4006 17.7717 15.435 17.7717ZM4.567 4.00062C3.59327 4.00062 2.8006 4.79328 2.8006 5.76702V14.2047C2.8006 15.1784 3.59327 15.9711 4.567 15.9711H15.433C16.4067 15.9711 17.1994 15.1784 17.1994 14.2047V5.76702C17.1994 4.79328 16.4067 4.00062 15.433 4.00062H4.567Z"
      fill="currentColor"
    ></path>
    <path
      d="M9.99943 11.2C9.51188 11.2 9.02238 11.0667 8.59748 10.8019L8.5407 10.7635L4.3329 7.65675C3.95304 7.37731 3.88842 6.86226 4.18996 6.50976C4.48954 6.15544 5.0417 6.09699 5.4196 6.37643L9.59412 9.45943C9.84279 9.60189 10.1561 9.60189 10.4067 9.45943L14.5812 6.37643C14.9591 6.09699 15.5113 6.15544 15.8109 6.50976C16.1104 6.86409 16.0478 7.37731 15.6679 7.65675L11.4014 10.8019C10.9765 11.0667 10.487 11.2 9.99943 11.2Z"
      fill="currentColor"
    ></path>
  </symbol>
  <!-- 动态图标 -->
  <symbol id="microblog-icon" viewBox="0 0 20 21" fill="none">
    <g clip-path="url(#clip0)">
      <path
        d="M10 10.743C7.69883 10.743 5.83333 8.87747 5.83333 6.5763C5.83333 4.27512 7.69883 2.40964 10 2.40964V10.743Z"
        stroke="currentColor"
        stroke-width="1.6"
        stroke-linejoin="round"
      ></path>
      <path
        d="M10 10.743C10 13.0441 8.1345 14.9096 5.83333 14.9096C3.53217 14.9096 1.66667 13.0441 1.66667 10.743H10Z"
        stroke="currentColor"
        stroke-width="1.6"
        stroke-linejoin="round"
      ></path>
      <path
        d="M10 10.743C10 8.44182 11.8655 6.57632 14.1667 6.57632C16.4679 6.57632 18.3333 8.44182 18.3333 10.743H10Z"
        stroke="currentColor"
        stroke-width="1.6"
        stroke-linejoin="round"
      ></path>
      <path
        d="M9.99999 10.743C12.3012 10.743 14.1667 12.6085 14.1667 14.9096C14.1667 17.2108 12.3012 19.0763 9.99999 19.0763V10.743Z"
        stroke="currentColor"
        stroke-width="1.6"
        stroke-linejoin="round"
      ></path>
    </g>
    <defs>
      <clipPath id="clip0">
        <rect
          width="20"
          height="20"
          fill="currentColor"
          transform="matrix(-1 0 0 1 20 0.742981)"
        ></rect>
      </clipPath>
    </defs>
  </symbol>
  <!-- 收藏图标 -->
  <symbol id="favorite-icon" viewBox="0 0 20 21" fill="none">
    <path
      fill-rule="evenodd"
      clip-rule="evenodd"
      d="M11.0505 3.16759L12.7915 6.69573C12.954 7.02647 13.2702 7.25612 13.6349 7.30949L17.5294 7.87474C18.448 8.00817 18.8159 9.13785 18.1504 9.78639L15.3331 12.5334C15.0686 12.7905 14.9481 13.1609 15.0104 13.5256L15.6759 17.4031C15.8328 18.3184 14.8721 19.0171 14.0497 18.5845L10.5661 16.7537C10.2402 16.5823 9.85042 16.5823 9.52373 16.7537L6.04087 18.5845C5.21848 19.0171 4.2578 18.3184 4.41468 17.4031L5.07939 13.5256C5.14166 13.1609 5.02198 12.7905 4.75755 12.5334L1.9394 9.78639C1.27469 9.13785 1.64182 8.00817 2.56126 7.87474L6.4549 7.30949C6.82041 7.25612 7.13578 7.02647 7.29832 6.69573L9.04015 3.16759C9.45095 2.33468 10.6389 2.33468 11.0505 3.16759Z"
      stroke="currentColor"
      stroke-width="1.6"
      stroke-linecap="round"
      stroke-linejoin="round"
    ></path>
    <path
      d="M11.603 11.8739C11.413 12.5556 10.7871 13.0554 10.0447 13.0554C9.29592 13.0554 8.66679 12.5467 8.48242 11.8569"
      stroke="currentColor"
      stroke-width="1.6"
      stroke-linecap="round"
      stroke-linejoin="round"
    ></path>
  </symbol>
  <!-- 历史图标 -->
  <symbol id="history-icon" viewBox="0 0 20 21">
    <path
      fill-rule="evenodd"
      clip-rule="evenodd"
      d="M10 1.74286C5.02955 1.74286 1 5.7724 1 10.7429C1 15.7133 5.02955 19.7429 10 19.7429C14.9705 19.7429 19 15.7133 19 10.7429C19 5.7724 14.9705 1.74286 10 1.74286ZM10.0006 3.379C14.0612 3.379 17.3642 6.68282 17.3642 10.7426C17.3642 14.8033 14.0612 18.1063 10.0006 18.1063C5.93996 18.1063 2.63696 14.8033 2.63696 10.7426C2.63696 6.68282 5.93996 3.379 10.0006 3.379Z"
      fill="currentColor"
    ></path>
    <path
      d="M9.99985 6.6521V10.743"
      stroke="currentColor"
      stroke-width="1.7"
      stroke-linecap="round"
    ></path>
    <path
      d="M12.4545 10.7427H10"
      stroke="currentColor"
      stroke-width="1.7"
      stroke-linecap="round"
    ></path>
  </symbol>
  <!-- 创作中心图标 -->
  <symbol id="creation-icon" viewBox="0 0 20 21">
    <mask
      id="mask0"
      mask-type="alpha"
      maskUnits="userSpaceOnUse"
      x="2"
      y="1"
      width="16"
      height="20"
    >
      <path
        fill-rule="evenodd"
        clip-rule="evenodd"
        d="M2.5 1.74286H17.5V20.0762H2.5V1.74286Z"
        fill="currentColor"
      ></path>
    </mask>
    <g mask="url(#mask0)">
      <path
        fill-rule="evenodd"
        clip-rule="evenodd"
        d="M9.99999 1.74286C9.92916 1.74286 9.85916 1.74369 9.78833 1.74536C5.85416 1.85453 2.58416 5.14869 2.50166 9.08286C2.44999 11.5404 3.58666 13.7304 5.36999 15.1337C5.52166 15.2529 5.63166 15.4162 5.67333 15.6045L6.30416 18.447C6.51583 19.3987 7.36083 20.0762 8.33583 20.0762H11.6617C12.6383 20.0762 13.4842 19.3987 13.6958 18.4445L14.3275 15.602C14.3692 15.4154 14.4775 15.2537 14.6275 15.1354C16.3733 13.7629 17.5 11.637 17.5 9.24286C17.5 5.10036 14.1425 1.74286 9.99999 1.74286ZM10.0003 3.40939C13.2161 3.40939 15.8336 6.02606 15.8336 9.24273C15.8336 11.0386 15.0186 12.7086 13.5978 13.8252C13.1428 14.1827 12.8244 14.6852 12.7011 15.2402L12.0686 18.0827C12.0269 18.2752 11.8586 18.4094 11.6619 18.4094H8.33609C8.14109 18.4094 7.97359 18.2761 7.93192 18.0852L7.30025 15.2427C7.17609 14.6869 6.85775 14.1827 6.40109 13.8236C4.94359 12.6769 4.12942 10.9619 4.16859 9.11773C4.23192 6.05523 6.77442 3.49606 9.83442 3.41189C9.88942 3.41023 9.94525 3.40939 10.0003 3.40939Z"
        fill="currentColor"
      ></path>
      <path
        d="M10 6.81299L8.81253 9.18726H11.1875L9.99952 11.561"
        stroke="currentColor"
        stroke-width="1.6"
        stroke-linecap="round"
        stroke-linejoin="round"
      ></path>
    </g>
    <path
      d="M6.66656 15.9095H13.3332"
      stroke="currentColor"
      stroke-width="1.7"
    ></path>
  </symbol>
  <!-- 投稿图标 -->
  <symbol id="upload-icon" viewBox="0 0 18 18" fill="none">
    <path
      d="M12.0824 10H14.1412C15.0508 10 15.7882 10.7374 15.7882 11.6471V12.8824C15.7882 13.792 15.0508 14.5294 14.1412 14.5294H3.84707C2.93743 14.5294 2.20001 13.792 2.20001 12.8824V11.6471C2.20001 10.7374 2.93743 10 3.84707 10H5.90589"
      stroke="currentColor"
      stroke-width="1.7"
      stroke-linecap="round"
      stroke-linejoin="round"
    ></path>
    <path
      d="M8.99413 11.2353L8.99413 3.82353"
      stroke="currentColor"
      stroke-width="1.7"
      stroke-linecap="round"
      stroke-linejoin="round"
    ></path>
    <path
      d="M12.0823 6.29413L8.9941 3.20589L5.90587 6.29413"
      stroke="currentColor"
      stroke-width="1.7"
      stroke-linecap="round"
      stroke-linejoin="round"
    ></path>
  </symbol>
  <!-- 搜索图标 -->
  <symbol id="search-icon" viewBox="0 0 17 17" fill="none">
    <path
      fill-rule="evenodd"
      clip-rule="evenodd"
      d="M16.3451 15.2003C16.6377 15.4915 16.4752 15.772 16.1934 16.0632C16.15 16.1279 16.0958 16.1818 16.0525 16.2249C15.7707 16.473 15.4456 16.624 15.1854 16.3652L11.6848 12.8815C10.4709 13.8198 8.97529 14.3267 7.44714 14.3267C3.62134 14.3267 0.5 11.2314 0.5 7.41337C0.5 3.60616 3.6105 0.5 7.44714 0.5C11.2729 0.5 14.3943 3.59538 14.3943 7.41337C14.3943 8.98802 13.8524 10.5087 12.8661 11.7383L16.3451 15.2003ZM2.13647 7.4026C2.13647 10.3146 4.52083 12.6766 7.43624 12.6766C10.3517 12.6766 12.736 10.3146 12.736 7.4026C12.736 4.49058 10.3517 2.1286 7.43624 2.1286C4.50999 2.1286 2.13647 4.50136 2.13647 7.4026Z"
      fill="currentColor"
    ></path>
  </symbol>
  <!-- 赛事图标 -->
  <symbol id="match-icon" viewBox="0 0 16 16" fill="none">
    <path
      d="M8 3.3320333333333334C6.321186666666667 3.3320333333333334 4.855333333333333 3.4174399999999996 3.820593333333333 3.5013466666666666C3.1014733333333333 3.5596599999999996 2.5440733333333334 4.109013333333333 2.48 4.821693333333333C2.4040466666666664 5.666533333333334 2.333333333333333 6.780666666666666 2.333333333333333 7.998666666666666C2.333333333333333 9.216733333333334 2.4040466666666664 10.330866666666665 2.48 11.175699999999999C2.5440733333333334 11.888366666666666 3.1014733333333333 12.437733333333334 3.820593333333333 12.496066666666666C4.855333333333333 12.579933333333333 6.321186666666667 12.665333333333333 8 12.665333333333333C9.678999999999998 12.665333333333333 11.144933333333334 12.579933333333333 12.179733333333333 12.496033333333333C12.898733333333332 12.4377 13.456 11.888533333333331 13.520066666666667 11.176033333333333C13.595999999999998 10.331533333333333 13.666666666666666 9.217633333333332 13.666666666666666 7.998666666666666C13.666666666666666 6.779766666666667 13.595999999999998 5.665846666666667 13.520066666666667 4.821366666666666C13.456 4.108866666666666 12.898733333333332 3.55968 12.179733333333333 3.5013666666666663C11.144933333333334 3.417453333333333 9.678999999999998 3.3320333333333334 8 3.3320333333333334zM3.7397666666666667 2.50462C4.794879999999999 2.41906 6.288386666666666 2.3320333333333334 8 2.3320333333333334C9.7118 2.3320333333333334 11.2054 2.4190733333333334 12.260533333333331 2.5046399999999998C13.458733333333331 2.6018133333333333 14.407866666666665 3.5285199999999994 14.516066666666667 4.73182C14.593933333333332 5.597933333333334 14.666666666666666 6.7427 14.666666666666666 7.998666666666666C14.666666666666666 9.2547 14.593933333333332 10.399466666666665 14.516066666666667 11.2656C14.407866666666665 12.468866666666665 13.458733333333331 13.395566666666667 12.260533333333331 13.492766666666665C11.2054 13.578333333333333 9.7118 13.665333333333333 8 13.665333333333333C6.288386666666666 13.665333333333333 4.794879999999999 13.578333333333333 3.7397666666666667 13.492799999999999C2.541373333333333 13.395599999999998 1.5922066666666668 12.468633333333333 1.4840200000000001 11.265266666666665C1.4061199999999998 10.3988 1.3333333333333333 9.253866666666667 1.3333333333333333 7.998666666666666C1.3333333333333333 6.743533333333333 1.4061199999999998 5.598579999999999 1.4840200000000001 4.732153333333333C1.5922066666666668 3.5287466666666667 2.541373333333333 2.601793333333333 3.7397666666666667 2.50462z"
      fill="currentColor"
    ></path>
    <path
      d="M9.8092 7.3125C10.338433333333333 7.618066666666666 10.338433333333333 8.382 9.809166666666666 8.687533333333333L7.690799999999999 9.910599999999999C7.161566666666666 10.216133333333332 6.5 9.8342 6.500006666666666 9.223066666666666L6.500006666666666 6.776999999999999C6.500006666666666 6.165873333333334 7.161566666666666 5.783913333333333 7.690799999999999 6.089479999999999L9.8092 7.3125z"
      fill="currentColor"
    ></path>
  </symbol>
  <!-- 箭头图标 -->
  <symbol id="arrow-icon" viewBox="0 0 9 9">
    <path
      fill-rule="evenodd"
      clip-rule="evenodd"
      d="M7.50588 3.40623C7.40825 3.3086 7.24996 3.3086 7.15232 3.40623L4.41244 6.14612L1.67255 3.40623C1.57491 3.3086 1.41662 3.3086 1.31899 3.40623C1.22136 3.50386 1.22136 3.66215 1.31899 3.75978L4.11781 6.5586C4.28053 6.72132 4.54434 6.72132 4.70706 6.5586L7.50588 3.75978C7.60351 3.66215 7.60351 3.50386 7.50588 3.40623Z"
      fill="currentColor"
    ></path>
    <path
      d="M7.15232 3.40623L7.50588 3.75978L7.50588 3.75978L7.15232 3.40623ZM7.50588 3.40623L7.15232 3.75978L7.15233 3.75978L7.50588 3.40623ZM4.41244 6.14612L4.05888 6.49967C4.15265 6.59344 4.27983 6.64612 4.41244 6.64612C4.54504 6.64612 4.67222 6.59344 4.76599 6.49967L4.41244 6.14612ZM1.67255 3.40623L2.0261 3.05268L2.0261 3.05268L1.67255 3.40623ZM1.31899 3.40623L0.965439 3.05268L0.965439 3.05268L1.31899 3.40623ZM1.31899 3.75978L1.67255 3.40623V3.40623L1.31899 3.75978ZM4.11781 6.5586L3.76425 6.91215L4.11781 6.5586ZM4.70706 6.5586L4.35351 6.20505L4.70706 6.5586ZM7.50588 3.75978L7.15233 3.40623L7.15232 3.40623L7.50588 3.75978ZM7.50588 3.75978C7.40825 3.85742 7.24996 3.85742 7.15232 3.75978L7.85943 3.05268C7.56654 2.75978 7.09166 2.75978 6.79877 3.05268L7.50588 3.75978ZM4.76599 6.49967L7.50588 3.75978L6.79877 3.05268L4.05888 5.79257L4.76599 6.49967ZM1.31899 3.75978L4.05888 6.49967L4.76599 5.79257L2.0261 3.05268L1.31899 3.75978ZM1.67254 3.75979C1.57491 3.85742 1.41662 3.85742 1.31899 3.75979L2.0261 3.05268C1.73321 2.75978 1.25833 2.75978 0.965439 3.05268L1.67254 3.75979ZM1.67255 3.40623C1.77018 3.50386 1.77018 3.66215 1.67255 3.75978L0.965439 3.05268C0.672546 3.34557 0.672546 3.82044 0.965439 4.11334L1.67255 3.40623ZM4.47136 6.20505L1.67255 3.40623L0.965439 4.11334L3.76425 6.91215L4.47136 6.20505ZM4.35351 6.20505C4.38605 6.1725 4.43882 6.1725 4.47136 6.20505L3.76425 6.91215C4.12223 7.27013 4.70264 7.27013 5.06062 6.91215L4.35351 6.20505ZM7.15232 3.40623L4.35351 6.20505L5.06062 6.91215L7.85943 4.11334L7.15232 3.40623ZM7.15233 3.75978C7.05469 3.66215 7.05469 3.50386 7.15233 3.40623L7.85943 4.11334C8.15233 3.82045 8.15233 3.34557 7.85943 3.05268L7.15233 3.75978Z"
      fill="currentColor"
    ></path>
  </symbol>
  <!-- 手机版图标 -->
  <symbol id="phone-icon" viewBox="0 0 16 16">
    <path
      fill-rule="evenodd"
      clip-rule="evenodd"
      d="M11.2 1.00012H8H4.80003C3.56489 1.00012 2.56006 2.00495 2.56006 3.24009V12.7599C2.56006 13.9951 3.56489 14.9999 4.80003 14.9999H11.2C12.4351 14.9999 13.4399 13.9951 13.4399 12.7599V3.24009C13.4399 2.00495 12.4351 1.00012 11.2 1.00012ZM12.1599 12.76C12.1599 13.2893 11.7293 13.7199 11.2 13.7199H4.80003C4.27067 13.7199 3.84006 13.2893 3.84006 12.76V3.24009C3.84006 2.71073 4.27068 2.28011 4.80003 2.28011H11.2C11.7293 2.28011 12.1599 2.71073 12.1599 3.24009V12.76ZM5.91992 3.7201C5.91992 3.36664 6.20646 3.08011 6.55991 3.08011H9.43987C9.79333 3.08011 10.0799 3.36664 10.0799 3.7201C10.0799 4.07356 9.79333 4.36009 9.43987 4.36009H6.55991C6.20646 4.36009 5.91992 4.07356 5.91992 3.7201ZM7.26109 12.4261C7.22089 12.329 7.2002 12.225 7.2002 12.12C7.2002 11.9078 7.28448 11.7043 7.4345 11.5543C7.58453 11.4043 7.78801 11.32 8.00018 11.32C8.21235 11.32 8.41582 11.4043 8.56585 11.5543C8.71588 11.7043 8.80016 11.9078 8.80016 12.12C8.80016 12.225 8.77947 12.329 8.73926 12.4261C8.69906 12.5232 8.64014 12.6114 8.56585 12.6856C8.49157 12.7599 8.40338 12.8189 8.30632 12.8591C8.20926 12.8993 8.10523 12.92 8.00018 12.92C7.89512 12.92 7.7911 12.8993 7.69404 12.8591C7.59698 12.8189 7.50879 12.7599 7.4345 12.6856C7.36022 12.6114 7.30129 12.5232 7.26109 12.4261Z"
      fill="currentColor"
    ></path>
  </symbol>
  <!-- windows端图标 -->
  <symbol id="computer-icon" viewBox="0 0 16 16" fill="none">
    <path d="M16 0H0V16H16V0Z" fill="white" fill-opacity="0.01"></path>
    <path
      fill-rule="evenodd"
      clip-rule="evenodd"
      d="M0.683594 2.33335C0.683594 1.97436 0.974609 1.68335 1.33359 1.68335H14.6669C15.0259 1.68335 15.3169 1.97436 15.3169 2.33335V11C15.3169 11.359 15.0259 11.65 14.6669 11.65H8.6501V13C8.6501 13.0056 8.65003 13.0111 8.64989 13.0167H12.0001C12.3591 13.0167 12.6501 13.3077 12.6501 13.6667C12.6501 14.0257 12.3591 14.3167 12.0001 14.3167H4.0001C3.64111 14.3167 3.3501 14.0257 3.3501 13.6667C3.3501 13.3077 3.64111 13.0167 4.0001 13.0167H7.35031C7.35017 13.0111 7.3501 13.0056 7.3501 13V11.65H1.33359C0.974609 11.65 0.683594 11.359 0.683594 11V2.33335ZM1.98359 2.98335V10.35H14.0169V2.98335H1.98359Z"
      fill="currentColor"
    ></path>
  </symbol>
  <!-- 等级图标 -->
  <symbol id="level-icon" viewBox="0 0 1901 1024">
    <path
      d="M154.916571 184.758857h1609.142858v707.364572h-1609.142858z"
      fill="#FFFFFF"
      p-id="3314"
    ></path>
    <path
      class="level-bg"
      d="M1779.565714 93.037714c22.674286 0 45.421714 20.772571 44.324572 43.300572l-0.877715 6.144v747.446857c0 22.454857-15.36 44.909714-41.472 48.859428l-8.118857 0.585143H144.603429a48.859429 48.859429 0 0 1-49.005715-41.325714l-0.585143-8.118857V228.937143c0-22.454857 15.36-44.909714 41.398858-48.786286l8.192-0.585143h1021.805714v-37.083428c0-22.454857 15.36-44.909714 41.398857-48.786286l8.118857-0.658286h563.565714z m-92.891428 105.033143h-383.926857c-16.457143 0-32.914286 14.628571-36.425143 30.939429l-0.658286 6.144v574.464c0 16.457143 14.628571 32.914286 30.939429 36.425143l6.144 0.658285h384c16.530286 0 32.987429-14.628571 36.498285-30.939428l0.658286-6.144V494.592c0-16.530286-14.628571-32.914286-31.012571-36.425143l-6.144-0.658286h-297.179429V321.609143h297.179429c16.530286 0 32.987429-14.628571 36.498285-30.939429l0.658286-6.144v-49.371428c0-18.578286-18.578286-37.083429-37.156571-37.083429zM733.110857 284.598857h-49.590857c-18.578286 0-37.156571 18.505143-37.156571 37.010286v302.738286c0 16.749714 0 31.817143 6.217142 37.010285l173.348572 172.909715c7.899429 7.899429 23.259429 10.752 33.426286 11.849142l9.947428 0.585143 8.557714-0.438857c10.093714-0.950857 26.550857-3.657143 34.816-11.995428l185.782858-172.909715c4.973714-4.900571 5.997714-13.824 6.144-23.478857V327.68c0-18.505143-18.505143-37.010286-37.083429-37.010286h-49.517714c-18.651429 0-37.156571 18.505143-37.156572 37.083429v277.942857l-105.325714 104.96-105.325714-104.96V321.609143c0-18.505143-18.505143-37.010286-37.083429-37.010286z m-445.952 0h-49.517714c-16.530286 0-33.060571 14.628571-36.571429 30.866286l-0.585143 6.144v488.009143c0 16.530286 14.628571 32.914286 30.939429 36.425143l6.217143 0.658285h297.252571c16.530286 0 32.987429-14.628571 36.498286-30.939428l0.658286-6.144v-49.371429c0-16.603429-14.628571-32.987429-31.012572-36.425143l-6.144-0.658285H324.242286v-401.554286c0-18.505143-18.578286-37.010286-37.156572-37.010286z m1312.914286 296.448v142.116572h-210.505143V581.046857h210.505143z"
      fill="#FF0000"
      p-id="3315"
    ></path>
  </symbol>
  <!-- 个人中心图标 -->
  <symbol id="user-icon" viewBox="0 0 18 18">
    <rect opacity="0.01" width="18" height="18" fill="white"></rect>
    <path
      d="M12.1146 9.48983C13.2763 8.63331 14.0299 7.2548 14.0299 5.7035C14.0299 3.11005 11.9198 1 9.32636 1C6.73291 1 4.62286 3.11005 4.62286 5.7035C4.62286 7.2548 5.37829 8.63331 6.53808 9.48983C3.87662 10.589 2 13.2118 2 16.2648C2 16.671 2.32901 17 2.73521 17C3.14141 17 3.47042 16.671 3.47042 16.2648C3.47042 13.0335 6.09879 10.407 9.3282 10.407C12.5576 10.407 15.186 13.0354 15.186 16.2648C15.186 16.671 15.515 17 15.9212 17C16.3274 17 16.6564 16.671 16.6564 16.2648C16.6546 13.2118 14.7761 10.589 12.1146 9.48983ZM6.09144 5.7035C6.09144 3.91878 7.54348 2.46858 9.32636 2.46858C11.1092 2.46858 12.5613 3.92062 12.5613 5.7035C12.5613 7.48639 11.1092 8.93843 9.32636 8.93843C7.54348 8.93843 6.09144 7.48639 6.09144 5.7035Z"
      fill="var(--text2)"
    ></path>
  </symbol>
  <!-- 投稿管理图标 -->
  <symbol id="file-icon" viewBox="0 0 18 18">
    <rect opacity="0.01" width="18" height="18" fill="#C4C4C4"></rect>
    <path
      fill-rule="evenodd"
      clip-rule="evenodd"
      d="M3.375 1.875H10.875C12.739 1.875 14.25 3.38604 14.25 5.25V7.875V8.625C14.25 9.03921 14.5858 9.375 15 9.375C15.4142 9.375 15.75 9.03921 15.75 8.625V7.875V5.25C15.75 2.55761 13.5674 0.375 10.875 0.375H3.375C2.33947 0.375 1.5 1.21447 1.5 2.25V15C1.5 16.0355 2.33947 16.875 3.375 16.875H6.75H7.5C7.91421 16.875 8.25 16.5392 8.25 16.125C8.25 15.7108 7.91421 15.375 7.5 15.375H6.75H3.375C3.16789 15.375 3 15.2071 3 15V2.25C3 2.04289 3.16789 1.875 3.375 1.875ZM10.4 8.51962C10.8 8.28868 10.8 7.71132 10.4 7.48038L7.7 5.92154C7.3 5.6906 6.8 5.97927 6.8 6.44115V9.55885C6.8 10.0207 7.3 10.3094 7.7 10.0785L10.4 8.51962ZM15.518 14.2511L14.3215 16.3234H11.9285L10.7321 14.2511L11.9285 12.1787H14.3215L15.518 14.2511ZM16.817 13.5011C17.0849 13.9652 17.0849 14.537 16.817 15.0011L15.6205 17.0734C15.3526 17.5375 14.8574 17.8234 14.3215 17.8234H11.9285C11.3926 17.8234 10.8974 17.5375 10.6295 17.0734L9.43302 15.0011C9.16507 14.537 9.16507 13.9652 9.43302 13.5011L10.6295 11.4287C10.8974 10.9646 11.3926 10.6787 11.9285 10.6787H14.3215C14.8574 10.6787 15.3526 10.9646 15.6205 11.4287L16.817 13.5011ZM13.125 13.3125C12.6072 13.3125 12.1875 13.7322 12.1875 14.25C12.1875 14.7678 12.6072 15.1875 13.125 15.1875C13.6428 15.1875 14.0625 14.7678 14.0625 14.25C14.0625 13.7322 13.6428 13.3125 13.125 13.3125Z"
      fill="var(--text2)"
    ></path>
  </symbol>
  <!-- 推荐服务图标 -->
  <symbol id="star-icon" viewBox="0 0 18 18" fill="none">
    <path
      d="M7.76269 1.80538C8.3585 0.936022 9.6415 0.936021 10.2373 1.80538L11.8725 4.19132C12.0675 4.47592 12.3547 4.68457 12.6857 4.78213L15.4601 5.59999C16.4711 5.89799 16.8675 7.11819 16.2248 7.95349L14.461 10.2459C14.2506 10.5194 14.1409 10.857 14.1504 11.2019L14.2299 14.0933C14.2589 15.1468 13.2209 15.901 12.2279 15.5478L9.50257 14.5787C9.1775 14.4631 8.82251 14.4631 8.49743 14.5787L5.77211 15.5478C4.7791 15.901 3.74113 15.1468 3.77011 14.0933L3.84963 11.2019C3.85912 10.857 3.74942 10.5194 3.53902 10.2459L1.77516 7.95349C1.13247 7.11819 1.52893 5.89799 2.53986 5.59999L5.31432 4.78213C5.64526 4.68457 5.93246 4.47592 6.1275 4.19132L7.76269 1.80538Z"
      stroke="var(--text2)"
      stroke-width="1.6"
    ></path>
    <path
      d="M8.64131 6.72679C8.78803 6.4295 9.21197 6.4295 9.35869 6.72679L9.78861 7.5979C9.84687 7.71595 9.9595 7.79778 10.0898 7.81671L11.0511 7.9564C11.3792 8.00408 11.5102 8.40726 11.2728 8.63868L10.5772 9.31674C10.4829 9.40863 10.4399 9.54103 10.4621 9.67079L10.6263 10.6282C10.6824 10.955 10.3394 11.2042 10.046 11.0499L9.18614 10.5979C9.06961 10.5366 8.93039 10.5366 8.81386 10.5979L7.95403 11.0499C7.66058 11.2042 7.31761 10.955 7.37365 10.6282L7.53787 9.67079C7.56012 9.54103 7.5171 9.40863 7.42283 9.31674L6.72721 8.63868C6.4898 8.40727 6.62081 8.00408 6.9489 7.9564L7.91022 7.81671C8.0405 7.79778 8.15313 7.71596 8.21139 7.5979L8.64131 6.72679Z"
      fill="var(--text2)"
    ></path>
  </symbol>
  <!-- 退出登录图标 -->
  <symbol id="quit-icon" viewBox="0 0 18 18" fill="none">
    <path
      fill-rule="evenodd"
      clip-rule="evenodd"
      d="M17.6137 9.30115C17.6932 9.10837 17.6932 8.89282 17.6137 8.70004C17.5743 8.60393 17.5165 8.51726 17.4443 8.44504L15.2221 6.22282C14.9148 5.9156 14.4176 5.91615 14.111 6.22282C13.8043 6.52948 13.8037 7.02671 14.111 7.33393L14.9921 8.21504L7.99985 8.21504C7.56596 8.21448 7.21429 8.56615 7.21429 9.00059C7.21429 9.21726 7.30207 9.41393 7.44429 9.55615C7.58651 9.69837 7.78318 9.78615 7.99985 9.78615L14.9921 9.78615L14.111 10.6673C13.8043 10.9739 13.8037 11.4712 14.111 11.7784C14.4182 12.0856 14.9154 12.085 15.2221 11.7784L17.4443 9.55615C17.5165 9.48393 17.5743 9.39726 17.6137 9.30115"
      fill="var(--text2)"
    ></path>
    <path
      fill-rule="evenodd"
      clip-rule="evenodd"
      d="M11.8889 5.11111C9.74127 2.96349 6.25873 2.96349 4.11111 5.11111C1.96349 7.25873 1.96349 10.7413 4.11111 12.8889C6.25873 15.0365 9.74127 15.0365 11.8889 12.8889C12.1957 12.5821 12.6932 12.5821 13 12.8889C13.3068 13.1957 13.3068 13.6932 13 14C10.2387 16.7613 5.76127 16.7613 3 14C0.238731 11.2387 0.23873 6.76127 3 4C5.76127 1.23873 10.2387 1.23873 13 4C13.3068 4.30683 13.3068 4.80429 13 5.11111C12.6932 5.41794 12.1957 5.41794 11.8889 5.11111Z"
      fill="var(--text2)"
    ></path>
  </symbol>
  <!-- 直播中心图标 -->
  <symbol id="camera-icon" viewBox="0 0 18 18" fill="none">
    <rect opacity="0.01" width="17.8544" height="18" fill="#C4C4C4"></rect>
    <path
      fill-rule="evenodd"
      clip-rule="evenodd"
      d="M13.1646 1.5H3.4935C2.47059 1.5 1.63367 2.34375 1.63367 3.375V13.875C1.63367 14.9063 2.47059 15.75 3.4935 15.75H13.1646C14.1876 15.75 15.0245 14.9063 15.0245 13.875V3.375C15.0245 2.34375 14.1876 1.5 13.1646 1.5ZM13.1646 3C13.3663 3 13.5366 3.17175 13.5366 3.375V13.875C13.5366 14.0783 13.3663 14.25 13.1646 14.25H3.4935C3.2919 14.25 3.12154 14.0783 3.12154 13.875V3.375C3.12154 3.17175 3.2919 3 3.4935 3H13.1646Z"
      fill="var(--text2)"
    ></path>
    <path
      fill-rule="evenodd"
      clip-rule="evenodd"
      d="M16.5523 3.75C16.4727 3.75 16.3916 3.7575 16.3105 3.7725L14.749 4.0665C14.0497 4.1985 13.5364 4.88175 13.5364 5.682V11.304C13.5364 12.105 14.0497 12.7882 14.749 12.9202L16.3105 13.2135C16.3916 13.2292 16.4727 13.236 16.5523 13.236C17.3364 13.236 18 12.5167 18 11.598V5.38875C18 4.46925 17.3364 3.75 16.5523 3.75ZM16.4883 5.26575C16.501 5.29275 16.5121 5.33325 16.5121 5.38875V11.598C16.5121 11.6527 16.501 11.694 16.4883 11.721L15.0637 11.4532C15.0481 11.43 15.0242 11.3805 15.0242 11.304V5.682C15.0242 5.60625 15.0481 5.556 15.0637 5.5335L16.4883 5.26575Z"
      fill="var(--text2)"
    ></path>
    <path
      fill-rule="evenodd"
      clip-rule="evenodd"
      d="M4.60942 5.24609C4.60942 4.83188 4.94249 4.49609 5.35336 4.49609H7.58516C7.99602 4.49609 8.32909 4.83188 8.32909 5.24609C8.32909 5.66031 7.99602 5.99609 7.58516 5.99609H5.35336C4.94249 5.99609 4.60942 5.66031 4.60942 5.24609Z"
      fill="var(--text2)"
    ></path>
  </symbol>
  <!-- 我的课程图标 -->
  <symbol id="book-icon" viewBox="0 0 18 18" fill="none">
    <rect opacity="0.01" width="18" height="18" fill="#C4C4C4"></rect>
    <path
      fill-rule="evenodd"
      clip-rule="evenodd"
      d="M12.3995 0.75H4.04147C2.91872 0.75 1.99997 1.6695 1.99997 2.79225V15.2078C1.99997 16.3305 2.91872 17.25 4.04147 17.25H12.5067C14.5655 17.25 16.25 15.5655 16.25 13.5068V4.6005C16.25 2.48325 14.5167 0.75 12.3995 0.75ZM12.3995 2.25469C13.6962 2.25469 14.75 3.30844 14.75 4.60519V13.5114C14.75 14.7482 13.7435 15.7547 12.5067 15.7547H4.04146C3.74821 15.7547 3.49996 15.5064 3.49996 15.2124V2.79694C3.49996 2.50294 3.74821 2.25469 4.04146 2.25469H12.3995Z"
      fill="var(--text2)"
    ></path>
    <path
      fill-rule="evenodd"
      clip-rule="evenodd"
      d="M9.02925 0.75H5.4705C5.21025 0.75 4.9995 0.98475 4.9995 1.27425V7.5435C4.9995 7.842 5.21925 8.0685 5.46975 8.0685C5.5185 8.0685 5.5695 8.0595 5.61975 8.04075L7.101 7.49025C7.149 7.47225 7.2 7.46325 7.2495 7.46325C7.29975 7.46325 7.35075 7.47225 7.39875 7.49025L8.88 8.04075C8.93025 8.0595 8.98125 8.0685 9.03 8.0685C9.27975 8.0685 9.4995 7.842 9.4995 7.5435V1.27425C9.4995 0.98475 9.2895 0.75 9.02925 0.75ZM7.99946 2.25469V6.11794L7.92071 6.08869C7.70471 6.00919 7.47971 5.96794 7.24946 5.96794C7.01996 5.96794 6.79496 6.00919 6.57896 6.08869L6.49946 6.11794V2.25469H7.99946Z"
      fill="var(--text2)"
    ></path>
  </symbol>
  <!-- B币钱包图标 -->
  <symbol id="wallet-icon" viewBox="0 0 18 18" fill="none">
    <path opacity="0.01" d="M0 0H18V18H0V0Z" fill="#C4C4C4"></path>
    <path
      fill-rule="evenodd"
      clip-rule="evenodd"
      d="M15.3747 6H11.4604C10.1074 6 8.99969 7.10775 8.99969 8.46075V9.53925C8.99969 10.8922 10.1074 12 11.4604 12H15.3747C16.4104 12 17.2497 11.1607 17.2497 10.125V7.875C17.2497 6.83925 16.4104 6 15.3747 6ZM15.3747 7.50117C15.5809 7.50117 15.7497 7.66992 15.7497 7.87617V10.1262C15.7497 10.3324 15.5809 10.5012 15.3747 10.5012H11.4604C10.9399 10.5012 10.4997 10.0609 10.4997 9.54042V8.46192C10.4997 7.94142 10.9399 7.50117 11.4604 7.50117H15.3747Z"
      fill="var(--text2)"
    ></path>
    <path
      fill-rule="evenodd"
      clip-rule="evenodd"
      d="M3.32475 1.5H14.6745C15.6787 1.5 16.5 2.32125 16.5 3.3255V6.75391H15V11.2539H16.5V14.6745C16.5 15.6787 15.6787 16.5 14.6745 16.5H3.32475C2.3205 16.5 1.5 15.6787 1.5 14.6745V3.3255C1.5 2.32125 2.3205 1.5 3.32475 1.5ZM15 3.32667C15 3.14967 14.8507 3.00117 14.6745 3.00117H3.32474C3.14849 3.00117 2.99999 3.14967 2.99999 3.32667V14.6757C2.99999 14.8527 3.14849 15.0012 3.32474 15.0012H14.6745C14.8507 15.0012 15 14.8527 15 14.6757V3.32667Z"
      fill="var(--text2)"
    ></path>
  </symbol>
  <!-- 订单中心图标 -->
  <symbol id="list-icon" viewBox="0 0 18 18" fill="none">
    <rect opacity="0.01" width="18" height="18" fill="#C4C4C4"></rect>
    <path
      fill-rule="evenodd"
      clip-rule="evenodd"
      d="M6.3751 3H11.6251C11.8322 3 12.0001 3.16789 12.0001 3.375V4.875C12.0001 5.08211 11.8322 5.25 11.6251 5.25H6.3751C6.168 5.25 6.0001 5.08211 6.0001 4.875V3.375C6.0001 3.16789 6.168 3 6.3751 3ZM4.88542 2.23621C5.22808 1.78865 5.76788 1.5 6.3751 1.5H11.6251C12.2323 1.5 12.7721 1.78865 13.1148 2.23621H14.6251C15.6606 2.23621 16.5001 3.03371 16.5001 4.01746V14.705C16.5001 15.6887 15.6606 16.4862 14.6251 16.4862H3.37509C2.33956 16.4862 1.50009 15.6887 1.50009 14.705V4.01746C1.50009 3.03371 2.33956 2.23621 3.37509 2.23621H4.88542ZM4.5001 3.66121H3.37509C3.16798 3.66121 3.00009 3.82071 3.00009 4.01746V14.705C3.00009 14.9017 3.16798 15.0612 3.37509 15.0612H14.6251C14.8322 15.0612 15.0001 14.9017 15.0001 14.705V4.01746C15.0001 3.82071 14.8322 3.66121 14.6251 3.66121H13.5001V4.875C13.5001 5.91054 12.6606 6.75 11.6251 6.75H6.3751C5.33957 6.75 4.5001 5.91054 4.5001 4.875V3.66121ZM4.5001 9.38879C4.5001 8.97457 4.83589 8.63879 5.2501 8.63879H10.5001C10.9143 8.63879 11.2501 8.97457 11.2501 9.38879C11.2501 9.803 10.9143 10.1388 10.5001 10.1388H5.2501C4.83589 10.1388 4.5001 9.803 4.5001 9.38879ZM5.2501 11.625C4.83589 11.625 4.5001 11.9608 4.5001 12.375C4.5001 12.7892 4.83589 13.125 5.2501 13.125H7.5001C7.91432 13.125 8.2501 12.7892 8.2501 12.375C8.2501 11.9608 7.91432 11.625 7.5001 11.625H5.2501Z"
      fill="var(--text2)"
    ></path>
  </symbol>
  <!-- 热剧抢先看图标 -->
  <symbol id="video-icon" viewBox="0 0 32 32" fill="none">
    <path
      d="M26.24 6.23975C27.698 6.23975 28.8881 7.38695 28.9568 8.82796L28.96 8.95975V24.3197C28.96 25.7778 27.8128 26.9679 26.3717 27.0366L26.24 27.0397H7.67996C6.22193 27.0397 5.03184 25.8925 4.9631 24.4515L4.95996 24.3197V16.6397C4.95996 16.1979 5.31813 15.8397 5.75996 15.8397C6.17417 15.8397 6.51486 16.1545 6.55583 16.558L6.55996 16.6397V24.3197C6.55996 24.9074 7.01251 25.3893 7.5881 25.436L7.67996 25.4397H26.24C26.8276 25.4397 27.3095 24.9872 27.3562 24.4116L27.36 24.3197V8.95975C27.36 8.37212 26.9074 7.89018 26.3318 7.84346L26.24 7.83975H10.88C10.4381 7.83975 10.08 7.48157 10.08 7.03975C10.08 6.62553 10.3948 6.28484 10.7982 6.24388L10.88 6.23975H26.24Z"
      fill="#FB7199"
    ></path>
    <path
      d="M10.24 12.6396C10.6543 12.6396 10.9949 12.9544 11.0359 13.3579L11.04 13.4396V17.2796C11.04 17.8316 10.4983 18.2095 9.98911 18.0394L9.91665 18.0114L7.04004 16.7395L4.16343 18.0114C3.6586 18.2345 3.09395 17.8918 3.04366 17.3573L3.04004 17.2796V13.4396C3.04004 12.9978 3.39821 12.6396 3.84004 12.6396C4.25425 12.6396 4.59494 12.9544 4.63591 13.3579L4.64004 13.4396V16.0508L6.71665 15.1337C6.89321 15.0556 7.09094 15.0445 7.27355 15.1002L7.36343 15.1337L9.44004 16.0508V13.4396C9.44004 13.0254 9.75484 12.6847 10.1582 12.6438L10.24 12.6396Z"
      fill="#FB7199"
    ></path>
    <path
      fill-rule="evenodd"
      clip-rule="evenodd"
      d="M1.75977 9.59982C1.75977 6.68376 4.1237 4.31982 7.03977 4.31982C9.95583 4.31982 12.3198 6.68376 12.3198 9.59982C12.3198 12.5159 9.95583 14.8798 7.03977 14.8798C4.1237 14.8798 1.75977 12.5159 1.75977 9.59982ZM10.7194 9.59992C10.7194 7.56751 9.07178 5.91992 7.03938 5.91992C5.00697 5.91992 3.35938 7.56751 3.35938 9.59992C3.35938 11.6323 5.00697 13.2799 7.03938 13.2799C9.07178 13.2799 10.7194 11.6323 10.7194 9.59992Z"
      fill="#FB7199"
    ></path>
    <path
      d="M7.04022 7.67969C7.19731 7.67969 7.32797 7.79289 7.35506 7.94217L7.36022 7.99969V11.5197C7.36022 11.6964 7.21695 11.8397 7.04022 11.8397C6.88312 11.8397 6.75247 11.7265 6.72537 11.5772L6.72022 11.5197L6.71958 8.31969H6.37664C6.21955 8.31969 6.08889 8.20649 6.0618 8.05721L6.05664 7.99969C6.05664 7.84259 6.16984 7.71194 6.31912 7.68484L6.37664 7.67969H7.04022Z"
      fill="#FB7199"
    ></path>
    <path
      fill-rule="evenodd"
      clip-rule="evenodd"
      d="M16.4962 12.8648L20.7629 15.3779C21.9566 16.0811 21.9566 17.7583 20.7629 18.4615L16.4962 20.9746C15.2666 21.6989 13.6582 20.8588 13.6582 19.4328L13.6582 14.4066C13.6582 12.9806 15.2666 12.1405 16.4962 12.8648ZM15.6846 19.5961L19.9512 17.083C20.0944 16.9987 20.0944 16.841 19.9512 16.7567L15.6846 14.2435C15.4933 14.1309 15.2586 14.2535 15.2586 14.4067V19.433C15.2586 19.5862 15.4933 19.7088 15.6846 19.5961Z"
      fill="#FB7199"
    ></path>
    <path
      d="M28.1596 9.27979C28.3364 9.27979 28.4796 9.42305 28.4796 9.59979C28.4796 9.75688 28.3664 9.88753 28.2172 9.91463L28.1596 9.91979H16.9596C16.7829 9.91979 16.6396 9.77652 16.6396 9.59979C16.6396 9.44269 16.7528 9.31204 16.9021 9.28494L16.9596 9.27979H28.1596Z"
      fill="#FB7199"
    ></path>
    <path
      d="M23.6643 23.3599C23.841 23.3599 23.9843 23.5031 23.9843 23.6799C23.9843 23.837 23.8711 23.9676 23.7218 23.9947L23.6643 23.9999H5.44012C5.26339 23.9999 5.12012 23.8566 5.12012 23.6799C5.12012 23.5228 5.23332 23.3921 5.3826 23.365L5.44012 23.3599H23.6643Z"
      fill="#FB7199"
    ></path>
  </symbol>
  <!-- 会员免费看图标 -->
  <symbol id="free-icon" viewBox="0 0 32 32" fill="none">
    <path
      fill-rule="evenodd"
      clip-rule="evenodd"
      d="M3.83977 4.95996H23.0398C24.1885 4.95996 25.1198 5.89121 25.1198 7.03996V24.96C25.1198 26.1087 24.1885 27.04 23.0398 27.04H3.83977C2.69101 27.04 1.75977 26.1087 1.75977 24.96V7.03996C1.75977 5.89121 2.69101 4.95996 3.83977 4.95996ZM23.0394 6.56006H3.83938C3.57428 6.56006 3.35938 6.77496 3.35938 7.04006V24.9601C3.35938 25.2252 3.57428 25.4401 3.83938 25.4401H23.0394C23.3045 25.4401 23.5194 25.2252 23.5194 24.9601V7.04006C23.5194 6.77496 23.3045 6.56006 23.0394 6.56006Z"
      fill="#FB7199"
    ></path>
    <path
      d="M7.26966 13.3218C7.68838 13.3218 8.02781 13.6612 8.02781 14.0799C8.02781 14.4725 7.72948 14.7953 7.34718 14.8342L7.26966 14.8381L5.87724 14.8377L5.87764 18.4954C5.87764 18.888 5.5793 19.2109 5.197 19.2497L5.11948 19.2536C4.72693 19.2536 4.40407 18.9553 4.36524 18.573L4.36133 18.4954V14.0799C4.36133 13.6874 4.65966 13.3645 5.04197 13.3257L5.11948 13.3218H7.26966Z"
      fill="#FB7199"
    ></path>
    <path
      d="M7.26966 15.5532C7.68838 15.5532 8.02781 15.8927 8.02781 16.3114C8.02781 16.7039 7.72948 17.0268 7.34718 17.0656L7.26966 17.0695L5.87724 17.0695L5.87764 18.4956C5.87764 18.8881 5.5793 19.211 5.197 19.2498L5.11948 19.2537C4.72693 19.2537 4.40407 18.9554 4.36524 18.5731L4.36133 18.4956V16.3114C4.36133 15.9188 4.65966 15.596 5.04197 15.5571L5.11948 15.5532H7.26966Z"
      fill="#FB7199"
    ></path>
    <path
      d="M17.2267 13.3218C17.6454 13.3218 17.9848 13.6612 17.9848 14.0799C17.9848 14.4725 17.6865 14.7953 17.3042 14.8342L17.2267 14.8381L15.8341 14.8377V17.7369L17.2267 17.7373C17.6192 17.7373 17.9421 18.0356 17.9809 18.4179L17.9848 18.4954C17.9848 18.888 17.6865 19.2109 17.3042 19.2497L17.2267 19.2536H15.0765C14.684 19.2536 14.3611 18.9553 14.3223 18.573L14.3184 18.4954V14.0799C14.3184 13.6874 14.6167 13.3645 14.999 13.3257L15.0765 13.3218H17.2267Z"
      fill="#FB7199"
    ></path>
    <path
      d="M16.9967 15.5532C17.4154 15.5532 17.7549 15.8927 17.7549 16.3114C17.7549 16.7039 17.4565 17.0268 17.0742 17.0656L16.9967 17.0695H15.0765C14.6578 17.0695 14.3184 16.7301 14.3184 16.3114C14.3184 15.9188 14.6167 15.596 14.999 15.5571L15.0765 15.5532H16.9967Z"
      fill="#FB7199"
    ></path>
    <path
      d="M21.8605 13.3218C22.2792 13.3218 22.6186 13.6612 22.6186 14.0799C22.6186 14.4725 22.3203 14.7953 21.938 14.8342L21.8605 14.8381L20.4684 14.8377V17.7369L21.8605 17.7373C22.253 17.7373 22.5759 18.0356 22.6147 18.4179L22.6186 18.4954C22.6186 18.888 22.3203 19.2109 21.938 19.2497L21.8605 19.2536H19.7103C19.3178 19.2536 18.9949 18.9553 18.9561 18.573L18.9521 18.4954V14.0799C18.9521 13.6874 19.2505 13.3645 19.6328 13.3257L19.7103 13.3218H21.8605Z"
      fill="#FB7199"
    ></path>
    <path
      d="M21.6305 15.5532C22.0492 15.5532 22.3886 15.8927 22.3886 16.3114C22.3886 16.7039 22.0903 17.0268 21.708 17.0656L21.6305 17.0695H19.7103C19.2916 17.0695 18.9521 16.7301 18.9521 16.3114C18.9521 15.9188 19.2505 15.596 19.6328 15.5571L19.7103 15.5532H21.6305Z"
      fill="#FB7199"
    ></path>
    <path
      d="M11.1933 13.3218C11.6121 13.3218 11.9515 13.6612 11.9515 14.0799C11.9515 14.4725 11.6532 14.7953 11.2709 14.8342L11.1933 14.8381L10.5109 14.8377L10.5114 18.4954C10.5114 18.888 10.2131 19.2109 9.83079 19.2497L9.75327 19.2536C9.36072 19.2536 9.03786 18.9553 8.99903 18.573L8.99512 18.4954V14.0799C8.99512 13.6874 9.29345 13.3645 9.67575 13.3257L9.75327 13.3218H11.1933Z"
      fill="#FB7199"
    ></path>
    <path
      fill-rule="evenodd"
      clip-rule="evenodd"
      d="M10.4563 13.3218H11.4781C12.513 13.3218 13.3519 14.1607 13.3519 15.1956C13.3519 16.2305 12.513 17.0694 11.4781 17.0694H10.4563C9.64931 17.0694 8.99512 16.4152 8.99512 15.6082V14.7829C8.99512 13.976 9.64931 13.3218 10.4563 13.3218ZM10.5109 14.8377V15.5526L11.4781 15.5531C11.6755 15.5531 11.8356 15.393 11.8356 15.1956C11.8356 14.9981 11.6755 14.8381 11.4781 14.8381L10.5109 14.8377Z"
      fill="#FB7199"
    ></path>
    <path
      d="M10.9594 15.6538C11.2981 15.459 11.7244 15.5549 11.9495 15.8636L11.9946 15.933L13.251 18.1172C13.4598 18.4801 13.3348 18.9436 12.9718 19.1524C12.6331 19.3473 12.2067 19.2514 11.9817 18.9426L11.9366 18.8733L10.6802 16.689C10.4714 16.3261 10.5964 15.8626 10.9594 15.6538Z"
      fill="#FB7199"
    ></path>
    <path
      d="M20.6014 8.31982C20.7781 8.31982 20.9214 8.46309 20.9214 8.63982C20.9214 8.79692 20.8082 8.92757 20.6589 8.95467L20.6014 8.95982H2.56023C2.3835 8.95982 2.24023 8.81656 2.24023 8.63982C2.24023 8.48273 2.35343 8.35207 2.50271 8.32498L2.56023 8.31982H20.6014Z"
      fill="#FB7199"
    ></path>
    <path
      d="M23.6641 23.04C23.8408 23.04 23.9841 23.1833 23.9841 23.36C23.9841 23.5171 23.8709 23.6478 23.7216 23.6749L23.6641 23.68H6.195C6.01827 23.68 5.875 23.5368 5.875 23.36C5.875 23.2029 5.9882 23.0723 6.13748 23.0452L6.195 23.04H23.6641Z"
      fill="#FB7199"
    ></path>
    <path
      d="M23.7367 7.08697C23.9262 6.68784 24.4033 6.51789 24.8025 6.70738C28.4934 8.45964 30.8794 12.025 30.8794 15.9998C30.8794 19.9693 28.4998 23.5307 24.8166 25.2856C24.4177 25.4756 23.9403 25.3063 23.7502 24.9074C23.5602 24.5086 23.7295 24.0312 24.1284 23.8411C27.2685 22.345 29.2794 19.3355 29.2794 15.9998C29.2794 12.6596 27.263 9.64671 24.1163 8.15276C23.7171 7.96327 23.5472 7.4861 23.7367 7.08697Z"
      fill="#FB7199"
    ></path>
    <path
      d="M25.7583 12.5689C25.9059 12.4717 26.1044 12.5126 26.2016 12.6602C27.0234 13.9083 27.306 14.6411 27.306 15.9781C27.306 17.3153 27.0256 18.0636 26.2314 19.2937C26.1355 19.4421 25.9374 19.4848 25.7889 19.3889C25.6405 19.293 25.5978 19.095 25.6937 18.9465C26.427 17.8108 26.666 17.173 26.666 15.9781C26.666 14.7868 26.4263 14.1652 25.667 13.0121C25.5698 12.8645 25.6107 12.6661 25.7583 12.5689Z"
      fill="#FB7199"
    ></path>
    <path
      fill-rule="evenodd"
      clip-rule="evenodd"
      d="M3.83977 4.95996H23.0398C24.1885 4.95996 25.1198 5.89121 25.1198 7.03996V24.96C25.1198 26.1087 24.1885 27.04 23.0398 27.04H3.83977C2.69101 27.04 1.75977 26.1087 1.75977 24.96V7.03996C1.75977 5.89121 2.69101 4.95996 3.83977 4.95996ZM23.0394 6.56006H3.83938C3.57428 6.56006 3.35938 6.77496 3.35938 7.04006V24.9601C3.35938 25.2252 3.57428 25.4401 3.83938 25.4401H23.0394C23.3045 25.4401 23.5194 25.2252 23.5194 24.9601V7.04006C23.5194 6.77496 23.3045 6.56006 23.0394 6.56006Z"
      fill="#FB7199"
    ></path>
    <path
      d="M7.26966 13.3218C7.68838 13.3218 8.02781 13.6612 8.02781 14.0799C8.02781 14.4725 7.72948 14.7953 7.34718 14.8342L7.26966 14.8381L5.87724 14.8377L5.87764 18.4954C5.87764 18.888 5.5793 19.2109 5.197 19.2497L5.11948 19.2536C4.72693 19.2536 4.40407 18.9553 4.36524 18.573L4.36133 18.4954V14.0799C4.36133 13.6874 4.65966 13.3645 5.04197 13.3257L5.11948 13.3218H7.26966Z"
      fill="#FB7199"
    ></path>
    <path
      d="M7.26966 15.5532C7.68838 15.5532 8.02781 15.8927 8.02781 16.3114C8.02781 16.7039 7.72948 17.0268 7.34718 17.0656L7.26966 17.0695L5.87724 17.0695L5.87764 18.4956C5.87764 18.8881 5.5793 19.211 5.197 19.2498L5.11948 19.2537C4.72693 19.2537 4.40407 18.9554 4.36524 18.5731L4.36133 18.4956V16.3114C4.36133 15.9188 4.65966 15.596 5.04197 15.5571L5.11948 15.5532H7.26966Z"
      fill="#FB7199"
    ></path>
    <path
      d="M17.2267 13.3218C17.6454 13.3218 17.9848 13.6612 17.9848 14.0799C17.9848 14.4725 17.6865 14.7953 17.3042 14.8342L17.2267 14.8381L15.8341 14.8377V17.7369L17.2267 17.7373C17.6192 17.7373 17.9421 18.0356 17.9809 18.4179L17.9848 18.4954C17.9848 18.888 17.6865 19.2109 17.3042 19.2497L17.2267 19.2536H15.0765C14.684 19.2536 14.3611 18.9553 14.3223 18.573L14.3184 18.4954V14.0799C14.3184 13.6874 14.6167 13.3645 14.999 13.3257L15.0765 13.3218H17.2267Z"
      fill="#FB7199"
    ></path>
    <path
      d="M16.9967 15.5532C17.4154 15.5532 17.7549 15.8927 17.7549 16.3114C17.7549 16.7039 17.4565 17.0268 17.0742 17.0656L16.9967 17.0695H15.0765C14.6578 17.0695 14.3184 16.7301 14.3184 16.3114C14.3184 15.9188 14.6167 15.596 14.999 15.5571L15.0765 15.5532H16.9967Z"
      fill="#FB7199"
    ></path>
    <path
      d="M21.8605 13.3218C22.2792 13.3218 22.6186 13.6612 22.6186 14.0799C22.6186 14.4725 22.3203 14.7953 21.938 14.8342L21.8605 14.8381L20.4684 14.8377V17.7369L21.8605 17.7373C22.253 17.7373 22.5759 18.0356 22.6147 18.4179L22.6186 18.4954C22.6186 18.888 22.3203 19.2109 21.938 19.2497L21.8605 19.2536H19.7103C19.3178 19.2536 18.9949 18.9553 18.9561 18.573L18.9521 18.4954V14.0799C18.9521 13.6874 19.2505 13.3645 19.6328 13.3257L19.7103 13.3218H21.8605Z"
      fill="#FB7199"
    ></path>
    <path
      d="M21.6305 15.5532C22.0492 15.5532 22.3886 15.8927 22.3886 16.3114C22.3886 16.7039 22.0903 17.0268 21.708 17.0656L21.6305 17.0695H19.7103C19.2916 17.0695 18.9521 16.7301 18.9521 16.3114C18.9521 15.9188 19.2505 15.596 19.6328 15.5571L19.7103 15.5532H21.6305Z"
      fill="#FB7199"
    ></path>
    <path
      d="M11.1933 13.3218C11.6121 13.3218 11.9515 13.6612 11.9515 14.0799C11.9515 14.4725 11.6532 14.7953 11.2709 14.8342L11.1933 14.8381L10.5109 14.8377L10.5114 18.4954C10.5114 18.888 10.2131 19.2109 9.83079 19.2497L9.75327 19.2536C9.36072 19.2536 9.03786 18.9553 8.99903 18.573L8.99512 18.4954V14.0799C8.99512 13.6874 9.29345 13.3645 9.67575 13.3257L9.75327 13.3218H11.1933Z"
      fill="#FB7199"
    ></path>
    <path
      fill-rule="evenodd"
      clip-rule="evenodd"
      d="M10.4563 13.3218H11.4781C12.513 13.3218 13.3519 14.1607 13.3519 15.1956C13.3519 16.2305 12.513 17.0694 11.4781 17.0694H10.4563C9.64931 17.0694 8.99512 16.4152 8.99512 15.6082V14.7829C8.99512 13.976 9.64931 13.3218 10.4563 13.3218ZM10.5109 14.8377V15.5526L11.4781 15.5531C11.6755 15.5531 11.8356 15.393 11.8356 15.1956C11.8356 14.9981 11.6755 14.8381 11.4781 14.8381L10.5109 14.8377Z"
      fill="#FB7199"
    ></path>
    <path
      d="M10.9594 15.6538C11.2981 15.459 11.7244 15.5549 11.9495 15.8636L11.9946 15.933L13.251 18.1172C13.4598 18.4801 13.3348 18.9436 12.9718 19.1524C12.6331 19.3473 12.2067 19.2514 11.9817 18.9426L11.9366 18.8733L10.6802 16.689C10.4714 16.3261 10.5964 15.8626 10.9594 15.6538Z"
      fill="#FB7199"
    ></path>
    <path
      d="M20.6014 8.31982C20.7781 8.31982 20.9214 8.46309 20.9214 8.63982C20.9214 8.79692 20.8082 8.92757 20.6589 8.95467L20.6014 8.95982H2.56023C2.3835 8.95982 2.24023 8.81656 2.24023 8.63982C2.24023 8.48273 2.35343 8.35207 2.50271 8.32498L2.56023 8.31982H20.6014Z"
      fill="#FB7199"
    ></path>
    <path
      d="M23.6641 23.04C23.8408 23.04 23.9841 23.1833 23.9841 23.36C23.9841 23.5171 23.8709 23.6478 23.7216 23.6749L23.6641 23.68H6.195C6.01827 23.68 5.875 23.5368 5.875 23.36C5.875 23.2029 5.9882 23.0723 6.13748 23.0452L6.195 23.04H23.6641Z"
      fill="#FB7199"
    ></path>
    <path
      d="M23.7367 7.08697C23.9262 6.68784 24.4033 6.51789 24.8025 6.70738C28.4934 8.45964 30.8794 12.025 30.8794 15.9998C30.8794 19.9693 28.4998 23.5307 24.8166 25.2856C24.4177 25.4756 23.9403 25.3063 23.7502 24.9074C23.5602 24.5086 23.7295 24.0312 24.1284 23.8411C27.2685 22.345 29.2794 19.3355 29.2794 15.9998C29.2794 12.6596 27.263 9.64671 24.1163 8.15276C23.7171 7.96327 23.5472 7.4861 23.7367 7.08697Z"
      fill="#FB7199"
    ></path>
    <path
      d="M25.7583 12.5689C25.9059 12.4717 26.1044 12.5126 26.2016 12.6602C27.0234 13.9083 27.306 14.6411 27.306 15.9781C27.306 17.3153 27.0256 18.0636 26.2314 19.2937C26.1355 19.4421 25.9374 19.4848 25.7889 19.3889C25.6405 19.293 25.5978 19.095 25.6937 18.9465C26.427 17.8108 26.666 17.173 26.666 15.9781C26.666 14.7868 26.4263 14.1652 25.667 13.0121C25.5698 12.8645 25.6107 12.6661 25.7583 12.5689Z"
      fill="#FB7199"
    ></path>
  </symbol>
  <!-- 4K超清画质图标 -->
  <symbol id="hd-icon" viewBox="0 0 32 32" fill="none">
    <path
      fill-rule="evenodd"
      clip-rule="evenodd"
      d="M5.75969 4.95996H26.2397C27.3884 4.95996 28.3197 5.89121 28.3197 7.03996V24.96C28.3197 26.1087 27.3884 27.04 26.2397 27.04H5.75969C4.61094 27.04 3.67969 26.1087 3.67969 24.96V7.03996C3.67969 5.89121 4.61094 4.95996 5.75969 4.95996ZM26.2393 6.56006H5.7593C5.4942 6.56006 5.2793 6.77496 5.2793 7.04006V24.9601C5.2793 25.2252 5.4942 25.4401 5.7593 25.4401H26.2393C26.5044 25.4401 26.7193 25.2252 26.7193 24.9601V7.04006C26.7193 6.77496 26.5044 6.56006 26.2393 6.56006Z"
      fill="#FB7199"
    ></path>
    <path
      fill-rule="evenodd"
      clip-rule="evenodd"
      d="M5.51696 5.43994H26.4834C27.2327 5.43994 27.8402 6.0474 27.8402 6.79674V9.85594C27.8402 10.0327 27.6969 10.1759 27.5202 10.1759H4.48016C4.30343 10.1759 4.16016 10.0327 4.16016 9.85594V6.79674C4.16016 6.0474 4.76762 5.43994 5.51696 5.43994ZM26.5618 6.08428L26.4836 6.08008H5.51724C5.12137 6.08008 4.80044 6.401 4.80044 6.79688L4.7998 9.53544H27.1998L27.2004 6.79688C27.2004 6.42739 26.9209 6.1232 26.5618 6.08428Z"
      fill="#FB7199"
    ></path>
    <path
      fill-rule="evenodd"
      clip-rule="evenodd"
      d="M26.483 26.5601L5.51664 26.5601C4.7673 26.5601 4.15984 25.9526 4.15984 25.2033V22.1441C4.15984 21.9673 4.30311 21.8241 4.47985 21.8241L27.5198 21.8241C27.6966 21.8241 27.8398 21.9673 27.8398 22.1441V25.2033C27.8398 25.9526 27.2324 26.5601 26.483 26.5601ZM5.43825 25.9157L5.51635 25.9199L26.4828 25.9199C26.8786 25.9199 27.1996 25.599 27.1996 25.2031L27.2002 22.4646L4.80019 22.4646L4.79955 25.2031C4.79955 25.5726 5.07911 25.8768 5.43825 25.9157Z"
      fill="#FB7199"
    ></path>
    <path
      fill-rule="evenodd"
      clip-rule="evenodd"
      d="M8.1452 5.43994H13.3816C13.5583 5.43994 13.7016 5.58321 13.7016 5.75994V9.85594C13.7016 10.0327 13.5583 10.1759 13.3816 10.1759H8.1452C7.96846 10.1759 7.8252 10.0327 7.8252 9.85594V5.75994C7.8252 5.58321 7.96846 5.43994 8.1452 5.43994ZM13.0615 9.53529V6.07929H8.46502V9.53529H13.0615Z"
      fill="#FB7199"
    ></path>
    <path
      fill-rule="evenodd"
      clip-rule="evenodd"
      d="M8.1452 21.8237H13.3816C13.5583 21.8237 13.7016 21.967 13.7016 22.1437V26.2397C13.7016 26.4165 13.5583 26.5597 13.3816 26.5597H8.1452C7.96846 26.5597 7.8252 26.4165 7.8252 26.2397V22.1437C7.8252 21.967 7.96846 21.8237 8.1452 21.8237ZM13.0615 25.9197V22.4637H8.46502V25.9197H13.0615Z"
      fill="#FB7199"
    ></path>
    <path
      fill-rule="evenodd"
      clip-rule="evenodd"
      d="M13.3815 5.43994H18.6179C18.7946 5.43994 18.9379 5.58321 18.9379 5.75994V9.85594C18.9379 10.0327 18.7946 10.1759 18.6179 10.1759H13.3815C13.2048 10.1759 13.0615 10.0327 13.0615 9.85594V5.75994C13.0615 5.58321 13.2048 5.43994 13.3815 5.43994ZM18.297 9.5351V6.0791H13.7012V9.5351H18.297Z"
      fill="#FB7199"
    ></path>
    <path
      fill-rule="evenodd"
      clip-rule="evenodd"
      d="M13.3815 21.8237H18.6179C18.7946 21.8237 18.9379 21.967 18.9379 22.1437V26.2397C18.9379 26.4165 18.7946 26.5597 18.6179 26.5597H13.3815C13.2048 26.5597 13.0615 26.4165 13.0615 26.2397V22.1437C13.0615 21.967 13.2048 21.8237 13.3815 21.8237ZM18.297 25.9199V22.4639H13.7012V25.9199H18.297Z"
      fill="#FB7199"
    ></path>
    <path
      fill-rule="evenodd"
      clip-rule="evenodd"
      d="M18.6179 5.43994H23.8542C24.0309 5.43994 24.1742 5.58321 24.1742 5.75994V9.85594C24.1742 10.0327 24.0309 10.1759 23.8542 10.1759H18.6179C18.4411 10.1759 18.2979 10.0327 18.2979 9.85594V5.75994C18.2979 5.58321 18.4411 5.43994 18.6179 5.43994ZM23.5338 9.53529V6.07929H18.9373V9.53529H23.5338Z"
      fill="#FB7199"
    ></path>
    <path
      fill-rule="evenodd"
      clip-rule="evenodd"
      d="M18.6179 21.8237H23.8542C24.0309 21.8237 24.1742 21.967 24.1742 22.1437V26.2397C24.1742 26.4165 24.0309 26.5597 23.8542 26.5597H18.6179C18.4411 26.5597 18.2979 26.4165 18.2979 26.2397V22.1437C18.2979 21.967 18.4411 21.8237 18.6179 21.8237ZM23.5338 25.9197V22.4637H18.9373V25.9197H23.5338Z"
      fill="#FB7199"
    ></path>
    <path
      fill-rule="evenodd"
      clip-rule="evenodd"
      d="M11.0353 13.3583C10.9944 12.9549 10.6537 12.6401 10.2395 12.6401C9.79763 12.6401 9.43945 12.9983 9.43945 13.4401V19.0256L9.44358 19.1074C9.48455 19.5108 9.82524 19.8256 10.2395 19.8256C10.6813 19.8256 11.0395 19.4674 11.0395 19.0256V13.4401L11.0353 13.3583ZM15.589 13.3583C15.5481 12.9549 15.2074 12.6401 14.7932 12.6401C14.3513 12.6401 13.9932 12.9983 13.9932 13.4401V19.0256L13.9973 19.1074C14.0383 19.5108 14.379 19.8256 14.7932 19.8256C15.235 19.8256 15.5932 19.4674 15.5932 19.0256V13.4401L15.589 13.3583Z"
      fill="#FB7199"
    ></path>
    <path
      d="M14.7926 15.2002V16.8002H10.2393V15.2002H14.7926Z"
      fill="#FB7199"
    ></path>
    <path
      fill-rule="evenodd"
      clip-rule="evenodd"
      d="M17.7102 12.6401H19.4708C21.455 12.6401 23.0635 14.2487 23.0635 16.2329C23.0635 18.2171 21.455 19.8256 19.4708 19.8256H17.7102C17.2683 19.8256 16.9102 19.4674 16.9102 19.0256V13.4401C16.9102 12.9983 17.2683 12.6401 17.7102 12.6401ZM18.5096 14.2401V18.2254L19.4708 18.2256C20.5713 18.2256 21.4635 17.3334 21.4635 16.2329C21.4635 15.1323 20.5713 14.2401 19.4708 14.2401H18.5096Z"
      fill="#FB7199"
    ></path>
    <path
      d="M21.4395 8.31982C21.6162 8.31982 21.7595 8.46309 21.7595 8.63982C21.7595 8.79692 21.6463 8.92757 21.497 8.95467L21.4395 8.95982H4.79949C4.62276 8.95982 4.47949 8.81656 4.47949 8.63982C4.47949 8.48273 4.59269 8.35207 4.74197 8.32498L4.79949 8.31982H21.4395Z"
      fill="#FB7199"
    ></path>
    <path
      d="M27.5197 23.04C27.6965 23.04 27.8397 23.1833 27.8397 23.36C27.8397 23.5171 27.7265 23.6478 27.5772 23.6749L27.5197 23.68H15.0397C14.863 23.68 14.7197 23.5368 14.7197 23.36C14.7197 23.2029 14.8329 23.0723 14.9822 23.0452L15.0397 23.04H27.5197Z"
      fill="#FB7199"
    ></path>
  </symbol>
  <!-- 会员专属装扮图标 -->
  <symbol id="dress-icon" viewBox="0 0 32 32" fill="none">
    <path
      fill-rule="evenodd"
      clip-rule="evenodd"
      d="M3.04004 16C3.04004 8.84243 8.84243 3.04004 16 3.04004C23.1576 3.04004 28.96 8.84243 28.96 16C28.96 23.1576 23.1576 28.96 16 28.96C8.84243 28.96 3.04004 23.1576 3.04004 16ZM27.3596 16.0001C27.3596 9.72618 22.2736 4.64014 15.9996 4.64014C9.72569 4.64014 4.63965 9.72618 4.63965 16.0001C4.63965 22.2741 9.72569 27.3601 15.9996 27.3601C22.2736 27.3601 27.3596 22.2741 27.3596 16.0001Z"
      fill="#FB7199"
    ></path>
    <path
      fill-rule="evenodd"
      clip-rule="evenodd"
      d="M8 16C8 11.5817 11.5817 8 16 8C20.4183 8 24 11.5817 24 16C24 20.4183 20.4183 24 16 24C11.5817 24 8 20.4183 8 16ZM23.3596 16.0001C23.3596 11.9353 20.0645 8.64014 15.9996 8.64014C11.9348 8.64014 8.63965 11.9353 8.63965 16.0001C8.63965 20.065 11.9348 23.3601 15.9996 23.3601C20.0645 23.3601 23.3596 20.065 23.3596 16.0001Z"
      fill="#FB7199"
    ></path>
    <path
      d="M15.1666 16.4325L13.5754 14.5198C13.2929 14.1802 12.7885 14.1339 12.4488 14.4165C12.1091 14.699 12.0629 15.2034 12.3454 15.5431C12.3454 15.5431 12.9537 16.2743 13.2579 16.6399C13.4841 16.9119 15.4492 16.7722 15.1666 16.4325Z"
      fill="#FB7199"
    ></path>
    <path
      d="M16.6674 16.4325L18.2586 14.5198C18.5411 14.1802 19.0455 14.1339 19.3852 14.4165C19.7249 14.699 19.7711 15.2034 19.4886 15.5431C19.4886 15.5431 18.8803 16.2743 18.5761 16.6399C18.3499 16.9119 16.3848 16.7722 16.6674 16.4325Z"
      fill="#FB7199"
    ></path>
    <path
      d="M19.802 16.3125C20.6403 16.3125 21.3262 16.9649 21.3797 17.7897L21.3831 17.8936V21.6993C21.3831 21.876 21.2398 22.0193 21.0631 22.0193C20.906 22.0193 20.7754 21.9061 20.7483 21.7568L20.7431 21.6993V17.8936C20.7431 17.4044 20.3699 17.0024 19.8926 16.9568L19.802 16.9525H12.1407C11.6515 16.9525 11.2495 17.3257 11.2039 17.803L11.1996 17.8936V21.6993C11.1996 21.876 11.0563 22.0193 10.8796 22.0193C10.7225 22.0193 10.5918 21.9061 10.5647 21.7568L10.5596 21.6993V17.8936C10.5596 17.0553 11.212 16.3694 12.0367 16.3159L12.1407 16.3125H19.802Z"
      fill="#FB7199"
    ></path>
    <path
      d="M14.4557 18.4298C14.6968 18.3196 14.9816 18.4256 15.0919 18.6667C15.1929 18.8877 15.1122 19.1454 14.9124 19.2718L14.855 19.3029L12.9932 20.1543C12.7521 20.2646 12.4673 20.1585 12.3571 19.9174C12.256 19.6964 12.3367 19.4387 12.5366 19.3123L12.594 19.2813L14.4557 18.4298Z"
      fill="#FB7199"
    ></path>
    <path
      d="M17.4621 18.425C17.2184 18.3208 16.9362 18.4338 16.832 18.6775C16.7364 18.901 16.8234 19.1566 17.0263 19.278L17.0845 19.3077L19.1055 20.1723C19.3492 20.2766 19.6313 20.1636 19.7356 19.9198C19.8312 19.6964 19.7442 19.4408 19.5413 19.3194L19.4831 19.2897L17.4621 18.425Z"
      fill="#FB7199"
    ></path>
    <path
      d="M16.0004 20.7998C16.1771 20.7998 16.3204 20.9431 16.3204 21.1198C16.3204 21.65 15.8906 22.0798 15.3604 22.0798C14.8302 22.0798 14.4004 21.65 14.4004 21.1198C14.4004 20.9431 14.5437 20.7998 14.7204 20.7998C14.8775 20.7998 15.0081 20.913 15.0352 21.0623L15.0404 21.1198C15.0404 21.2965 15.1837 21.4398 15.3604 21.4398C15.5175 21.4398 15.6481 21.3266 15.6752 21.1773L15.6804 21.1198C15.6804 20.9431 15.8237 20.7998 16.0004 20.7998Z"
      fill="#FB7199"
    ></path>
    <path
      d="M17.2797 20.7998C17.4564 20.7998 17.5997 20.9431 17.5997 21.1198C17.5997 21.65 17.1699 22.0798 16.6397 22.0798C16.1095 22.0798 15.6797 21.65 15.6797 21.1198C15.6797 20.9431 15.823 20.7998 15.9997 20.7998C16.1568 20.7998 16.2874 20.913 16.3145 21.0623L16.3197 21.1198C16.3197 21.2965 16.463 21.4398 16.6397 21.4398C16.7968 21.4398 16.9274 21.3266 16.9545 21.1773L16.9597 21.1198C16.9597 20.9431 17.103 20.7998 17.2797 20.7998Z"
      fill="#FB7199"
    ></path>
    <path
      d="M25.7378 14.1071C26.5844 18.4622 24.4368 22.8131 20.5523 24.8166C20.3952 24.8976 20.2022 24.8359 20.1212 24.6789C20.0402 24.5218 20.1018 24.3288 20.2589 24.2478C23.8924 22.3737 25.9015 18.3034 25.1096 14.2292C25.0759 14.0557 25.1892 13.8877 25.3626 13.854C25.5361 13.8203 25.7041 13.9336 25.7378 14.1071Z"
      fill="#FB7199"
    ></path>
    <path
      d="M8.11025 14.3599C8.37535 14.3599 8.59025 14.5748 8.59025 14.8399C8.59025 15.0829 8.40967 15.2837 8.17539 15.3155L8.11025 15.3199H5.97316C5.70807 15.3199 5.49316 15.105 5.49316 14.8399C5.49316 14.5969 5.67374 14.396 5.90803 14.3642L5.97316 14.3599H8.11025Z"
      fill="#FB7199"
    ></path>
    <path
      d="M7.04152 13.1519C7.28453 13.1519 7.48536 13.3324 7.51714 13.5667L7.52152 13.6319V16.6403C7.52152 16.9054 7.30662 17.1203 7.04152 17.1203C6.79852 17.1203 6.59769 16.9397 6.56591 16.7054L6.56152 16.6403V13.6319C6.56152 13.3668 6.77643 13.1519 7.04152 13.1519Z"
      fill="#FB7199"
    ></path>
    <path
      d="M12.4861 9.12012C12.9279 9.12012 13.2861 9.47829 13.2861 9.92012C13.2861 10.3343 12.9713 10.675 12.5679 10.716L12.4861 10.7201H9.28047C8.83864 10.7201 8.48047 10.3619 8.48047 9.92012C8.48047 9.5059 8.79527 9.16522 9.19867 9.12425L9.28047 9.12012H12.4861Z"
      fill="#FB7199"
    ></path>
    <path
      d="M10.883 7.18652C11.2972 7.18652 11.6379 7.50132 11.6789 7.90473L11.683 7.98652V12.8C11.683 13.2418 11.3248 13.6 10.883 13.6C10.4688 13.6 10.1281 13.2852 10.0871 12.8818L10.083 12.8V7.98652C10.083 7.5447 10.4412 7.18652 10.883 7.18652Z"
      fill="#FB7199"
    ></path>
  </symbol>
  <!-- 稍后再看图标 -->
  <symbol id="watch-later-icon" viewBox="0 0 24 24" fill="none">
    <path
      d="M12 3.74976C7.44366 3.74976 3.75001 7.44341 3.75001 11.9998C3.75001 16.5561 7.44366 20.2498 12 20.2498C14.27795 20.2498 16.339 19.32755 17.83275 17.8343C18.12565 17.5415 18.6005 17.54155 18.8934 17.83445C19.1862 18.1274 19.1861 18.6023 18.8932 18.89515C17.1297 20.65805 14.69165 21.7498 12 21.7498C6.61523 21.7498 2.25001 17.38455 2.25001 11.9998C2.25001 6.61498 6.61523 2.24976 12 2.24976C17.38475 2.24976 21.75 6.61498 21.75 11.9998C21.75 12.36535 21.72985 12.72655 21.69055 13.08215C21.645 13.4939 21.27435 13.79075 20.8627 13.7452C20.451 13.6997 20.1541 13.32905 20.1996 12.91735C20.2329 12.61635 20.25 12.3102 20.25 11.9998C20.25 7.44341 16.55635 3.74976 12 3.74976z"
      fill="currentColor"
    ></path>
    <path
      d="M18.4697 10.9694C18.76255 10.6765 19.23745 10.6765 19.53035 10.9694L21 12.43905L22.4697 10.9694C22.76255 10.6765 23.23745 10.6765 23.53035 10.9694C23.8232 11.26235 23.8232 11.73715 23.53035 12.0301L21.7071 13.8533C21.3166 14.2438 20.68345 14.2438 20.2929 13.8533L18.4697 12.0301C18.1768 11.73715 18.1768 11.26235 18.4697 10.9694z"
      fill="currentColor"
    ></path>
    <path
      d="M14.9992 11.13405C15.6657 11.5188 15.6657 12.4808 14.9992 12.86555L11.2487 15.03095C10.58225 15.4157 9.74913 14.9347 9.74913 14.16515L9.74913 9.83448C9.74913 9.06488 10.58225 8.58388 11.2487 8.96868L14.9992 11.13405z"
      fill="currentColor"
    ></path>
  </symbol>
</svg>
